HIERARCHY
ROOT Hips
{
	OFFSET 0.000000 121.760803 0.000000
	CHANNELS 6 Xposition Yposition Zposition Xrotation Yrotation Zrotation 
	JOINT Spine
	{
		OFFSET 0.072000 7.257294 -0.789700
		CHANNELS 3 Xrotation Yrotation Zrotation
		JOINT Spine1
		{
			OFFSET 0.000000 12.508769 -0.658067
			CHANNELS 3 Xrotation Yrotation Zrotation
			JOINT Spine1_split
			{
				OFFSET 0.000000 12.508769 -0.658067
				CHANNELS 3 Xrotation Yrotation Zrotation
				JOINT Spine2
				{
					OFFSET 0.000000 12.508769 -0.658067
					CHANNELS 3 Xrotation Yrotation Zrotation
					JOINT Neck
					{
						OFFSET 0.000000 14.033295 7.520400
						CHANNELS 3 Xrotation Yrotation Zrotation
						JOINT Head
						{
							OFFSET 0.000000 8.198502 5.703100
							CHANNELS 3 Xrotation Yrotation Zrotation
							JOINT HeadTop_End
							{
								OFFSET 0.000000 17.760803 13.332701
								CHANNELS 3 Xrotation Yrotation Zrotation
								End Site
								{
									OFFSET 0.000000 0.000000 0.000000
								}
							}
						}
					}
					JOINT LeftShoulder
					{
						OFFSET 6.292450 5.785301 -0.669000
						CHANNELS 3 Xrotation Yrotation Zrotation
						JOINT LeftShoulder_split
						{
							OFFSET 6.292450 5.785301 -0.669000
							CHANNELS 3 Xrotation Yrotation Zrotation
							JOINT LeftArm
							{
								OFFSET 13.907140 -6.093903 1.965100
								CHANNELS 3 Xrotation Yrotation Zrotation
								JOINT LeftForeArm
								{
									OFFSET 34.140198 0.000000 0.000000
									CHANNELS 3 Xrotation Yrotation Zrotation
									JOINT LeftHand
									{
										OFFSET 40.960209 0.000000 0.000000
										CHANNELS 3 Xrotation Yrotation Zrotation
										JOINT LeftHandThumb1
										{
											OFFSET 10.006996 -7.170425 9.573125
											CHANNELS 3 Xrotation Yrotation Zrotation
											JOINT LeftHandThumb2
											{
												OFFSET 1.835007 -1.059448 1.059443
												CHANNELS 3 Xrotation Yrotation Zrotation
												JOINT LeftHandThumb3
												{
													OFFSET 2.112267 -1.219513 1.219518
													CHANNELS 3 Xrotation Yrotation Zrotation
													JOINT LeftHandThumb4
													{
														OFFSET 4.843811 -2.796570 2.796576
														CHANNELS 3 Xrotation Yrotation Zrotation
														End Site
														{
															OFFSET 0.000000 0.000000 0.000000
														}
													}
												}
											}
										}
										JOINT LeftHandIndex1
										{
											OFFSET 18.389847 -0.922348 4.596882
											CHANNELS 3 Xrotation Yrotation Zrotation
											JOINT LeftHandIndex2
											{
												OFFSET 4.711273 0.000000 0.000000
												CHANNELS 3 Xrotation Yrotation Zrotation
												JOINT LeftHandIndex3
												{
													OFFSET 2.886131 0.000000 0.000000
													CHANNELS 3 Xrotation Yrotation Zrotation
													JOINT LeftHandIndex4
													{
														OFFSET 6.145912 0.000000 0.000000
														CHANNELS 3 Xrotation Yrotation Zrotation
														End Site
														{
															OFFSET 0.000000 0.000000 0.000000
														}
													}
												}
											}
										}
										JOINT LeftHandMiddle1
										{
											OFFSET 18.013008 0.000000 0.000000
											CHANNELS 3 Xrotation Yrotation Zrotation
											JOINT LeftHandMiddle2
											{
												OFFSET 4.946693 0.000000 0.000000
												CHANNELS 3 Xrotation Yrotation Zrotation
												JOINT LeftHandMiddle3
												{
													OFFSET 3.342232 0.000000 0.000000
													CHANNELS 3 Xrotation Yrotation Zrotation
													JOINT LeftHandMiddle4
													{
														OFFSET 4.461754 0.000000 0.000000
														CHANNELS 3 Xrotation Yrotation Zrotation
														End Site
														{
															OFFSET 0.000000 0.000000 0.000000
														}
													}
												}
											}
										}
										JOINT LeftHandRing1
										{
											OFFSET 15.849892 -0.102921 -4.126150
											CHANNELS 3 Xrotation Yrotation Zrotation
											JOINT LeftHandRing2
											{
												OFFSET 3.527054 0.000000 0.000000
												CHANNELS 3 Xrotation Yrotation Zrotation
												JOINT LeftHandRing3
												{
													OFFSET 2.961098 0.000000 0.000000
													CHANNELS 3 Xrotation Yrotation Zrotation
													JOINT LeftHandRing4
													{
														OFFSET 4.927200 0.000000 0.000000
														CHANNELS 3 Xrotation Yrotation Zrotation
														End Site
														{
															OFFSET 0.000000 0.000000 0.000000
														}
													}
												}
											}
										}
										JOINT LeftHandPinky1
										{
											OFFSET 12.791824 -0.832031 -6.799156
											CHANNELS 3 Xrotation Yrotation Zrotation
											JOINT LeftHandPinky2
											{
												OFFSET 3.327133 0.000000 0.000000
												CHANNELS 3 Xrotation Yrotation Zrotation
												JOINT LeftHandPinky3
												{
													OFFSET 3.014900 0.000000 0.000000
													CHANNELS 3 Xrotation Yrotation Zrotation
													JOINT LeftHandPinky4
													{
														OFFSET 5.847786 0.000000 0.000000
														CHANNELS 3 Xrotation Yrotation Zrotation
														End Site
														{
															OFFSET 0.000000 0.000000 0.000000
														}
													}
												}
											}
										}
									}
								}
							}
						}
					}
					JOINT RightShoulder
					{
						OFFSET -6.292450 5.785301 -0.669000
						CHANNELS 3 Xrotation Yrotation Zrotation
						JOINT RightShoulder_split
						{
							OFFSET -6.292450 5.785301 -0.669000
							CHANNELS 3 Xrotation Yrotation Zrotation
							JOINT RightArm
							{
								OFFSET -13.907140 -6.093903 1.965100
								CHANNELS 3 Xrotation Yrotation Zrotation
								JOINT RightForeArm
								{
									OFFSET -34.140198 0.000000 0.000000
									CHANNELS 3 Xrotation Yrotation Zrotation
									JOINT RightHand
									{
										OFFSET -40.960209 0.000000 0.000000
										CHANNELS 3 Xrotation Yrotation Zrotation
										JOINT RightHandThumb1
										{
											OFFSET -10.007050 -7.170456 9.573117
											CHANNELS 3 Xrotation Yrotation Zrotation
											JOINT RightHandThumb2
											{
												OFFSET -1.835007 -1.059448 1.059443
												CHANNELS 3 Xrotation Yrotation Zrotation
												JOINT RightHandThumb3
												{
													OFFSET -2.112267 -1.219513 1.219518
													CHANNELS 3 Xrotation Yrotation Zrotation
													JOINT RightHandThumb4
													{
														OFFSET -4.843834 -2.796585 2.796590
														CHANNELS 3 Xrotation Yrotation Zrotation
														End Site
														{
															OFFSET 0.000000 0.000000 0.000000
														}
													}
												}
											}
										}
										JOINT RightHandIndex1
										{
											OFFSET -18.389870 -0.922424 4.596786
											CHANNELS 3 Xrotation Yrotation Zrotation
											JOINT RightHandIndex2
											{
												OFFSET -4.711273 0.000000 0.000000
												CHANNELS 3 Xrotation Yrotation Zrotation
												JOINT RightHandIndex3
												{
													OFFSET -2.886131 0.000000 0.000000
													CHANNELS 3 Xrotation Yrotation Zrotation
													JOINT RightHandIndex4
													{
														OFFSET -6.145920 0.000000 0.000000
														CHANNELS 3 Xrotation Yrotation Zrotation
														End Site
														{
															OFFSET 0.000000 0.000000 0.000000
														}
													}
												}
											}
										}
										JOINT RightHandMiddle1
										{
											OFFSET -18.013008 0.000000 0.000000
											CHANNELS 3 Xrotation Yrotation Zrotation
											JOINT RightHandMiddle2
											{
												OFFSET -4.946693 0.000000 0.000000
												CHANNELS 3 Xrotation Yrotation Zrotation
												JOINT RightHandMiddle3
												{
													OFFSET -3.342232 0.000000 0.000000
													CHANNELS 3 Xrotation Yrotation Zrotation
													JOINT RightHandMiddle4
													{
														OFFSET -4.461754 0.000000 0.000000
														CHANNELS 3 Xrotation Yrotation Zrotation
														End Site
														{
															OFFSET 0.000000 0.000000 0.000000
														}
													}
												}
											}
										}
										JOINT RightHandRing1
										{
											OFFSET -15.849876 -0.102936 -4.126237
											CHANNELS 3 Xrotation Yrotation Zrotation
											JOINT RightHandRing2
											{
												OFFSET -3.527054 0.000000 0.000000
												CHANNELS 3 Xrotation Yrotation Zrotation
												JOINT RightHandRing3
												{
													OFFSET -2.961098 0.000000 0.000000
													CHANNELS 3 Xrotation Yrotation Zrotation
													JOINT RightHandRing4
													{
														OFFSET -4.927200 0.000000 0.000000
														CHANNELS 3 Xrotation Yrotation Zrotation
														End Site
														{
															OFFSET 0.000000 0.000000 0.000000
														}
													}
												}
											}
										}
										JOINT RightHandPinky1
										{
											OFFSET -12.791786 -0.832077 -6.799222
											CHANNELS 3 Xrotation Yrotation Zrotation
											JOINT RightHandPinky2
											{
												OFFSET -3.327133 0.000000 0.000000
												CHANNELS 3 Xrotation Yrotation Zrotation
												JOINT RightHandPinky3
												{
													OFFSET -3.014900 0.000000 0.000000
													CHANNELS 3 Xrotation Yrotation Zrotation
													JOINT RightHandPinky4
													{
														OFFSET -5.847786 0.000000 0.000000
														CHANNELS 3 Xrotation Yrotation Zrotation
														End Site
														{
															OFFSET 0.000000 0.000000 0.000000
														}
													}
												}
											}
										}
									}
								}
							}
						}
					}
				}
			}
		}
	}
	JOINT LeftUpLeg
	{
		OFFSET 13.026900 -6.336304 -1.092800
		CHANNELS 3 Xrotation Yrotation Zrotation
		JOINT LeftLeg
		{
			OFFSET 0.524474 -46.096886 9.782700
			CHANNELS 3 Xrotation Yrotation Zrotation
			JOINT LeftFoot
			{
				OFFSET -0.524474 -53.427422 -12.948200
				CHANNELS 3 Xrotation Yrotation Zrotation
				JOINT LeftToeBase
				{
					OFFSET 0.192200 -14.009700 16.364100
					CHANNELS 3 Xrotation Yrotation Zrotation
					JOINT LeftToe_End
					{
						OFFSET -1.784700 -0.561700 9.474800
						CHANNELS 3 Xrotation Yrotation Zrotation
						End Site
						{
							OFFSET 0.000000 0.000000 0.000000
						}
					}
				}
			}
		}
	}
	JOINT RightUpLeg
	{
		OFFSET -12.883000 -6.336304 -1.092800
		CHANNELS 3 Xrotation Yrotation Zrotation
		JOINT RightLeg
		{
			OFFSET -0.524587 -46.096825 9.782800
			CHANNELS 3 Xrotation Yrotation Zrotation
			JOINT RightFoot
			{
				OFFSET 0.524587 -53.427383 -12.948300
				CHANNELS 3 Xrotation Yrotation Zrotation
				JOINT RightToeBase
				{
					OFFSET -0.192200 -14.009700 16.364100
					CHANNELS 3 Xrotation Yrotation Zrotation
					JOINT RightToe_End
					{
						OFFSET 1.784700 -0.561700 9.474800
						CHANNELS 3 Xrotation Yrotation Zrotation
						End Site
						{
							OFFSET 0.000000 0.000000 0.000000
						}
					}
				}
			}
		}
	}
}
MOTION
Frames: 5
Frame Time: 0.016667
0.356483 118.054245 -0.823713 2.912922 -29.006543 0.903293 7.837621 -0.307791 -2.399877 1.099247 -0.880569 2.383465 0.000000 0.000000 0.000000 1.108682 -0.590433 2.446365 -3.841828 18.019035 -6.496413 -6.332734 13.021623 0.301451 0.000000 -0.000000 -0.000000 -0.057081 -8.759455 -0.061262 0.000000 0.000000 0.000000 -55.250770 0.329469 -41.449392 11.584422 -65.827335 13.005538 -50.189111 12.353132 4.610201 17.551619 -5.699232 -12.932297 10.850486 26.127769 8.644836 20.926977 51.115879 0.218762 -0.000002 0.000001 -0.000002 13.980882 1.201520 -55.004347 0.370824 1.161733 -65.441893 1.983967 2.148002 -57.665115 -0.000000 0.000002 -0.000000 7.504730 1.174448 -63.778483 1.807805 1.475685 -64.567964 0.130376 -0.912243 -43.272506 -0.000000 0.000000 -0.000000 8.574339 2.179090 -75.148972 -0.207657 1.009264 -57.855056 0.443091 1.742186 -53.581270 0.000000 0.000001 -0.000002 10.030094 13.637067 -84.750230 0.877120 0.062278 -64.595503 1.141275 1.253138 -55.016313 0.000000 0.000000 0.000001 4.849284 7.760149 5.560467 0.000000 0.000000 0.000000 -0.933499 -2.176895 61.845621 11.299299 18.943458 -3.987587 -0.459242 6.620145 5.830143 15.788530 -2.734478 -17.205897 -2.198334 -31.113557 7.361265 -6.566789 -4.138117 2.407555 0.000001 -0.000000 -0.000000 2.372301 -3.659074 8.487471 -2.147368 -2.473145 18.673297 -1.918356 -4.820985 14.172136 0.000000 0.000000 0.000001 -1.976254 -5.707890 13.662366 0.283055 -5.105404 26.988092 -0.657819 -1.220596 16.125926 -0.000001 -0.000001 0.000001 -3.263080 -8.563306 11.768989 4.036049 -4.063314 33.263154 2.108300 -3.160500 15.593807 -0.000000 -0.000000 -0.000001 -6.474147 -11.347959 23.260694 10.719414 -2.558789 34.822955 6.414156 -3.079531 15.311030 0.000000 -0.000000 0.000000 -15.835490 18.234233 11.840619 13.974811 12.899044 -0.955300 -0.252075 -3.826191 -5.807063 -0.145175 0.008043 -0.311795 -0.000000 0.000000 0.000000 -7.701145 -1.706415 -8.156360 10.285700 9.437888 0.798652 -5.653071 -0.758582 6.751149 -1.288158 -0.016770 0.150242 -0.000000 -0.000001 0.000000 
0.431019 118.010681 -0.864218 2.891717 -29.095796 0.909159 7.937960 -0.286257 -2.344579 1.080459 -0.850004 2.358319 0.000000 0.000000 0.000000 1.088649 -0.565125 2.416396 -3.855335 18.005314 -6.571707 -6.317578 12.968642 0.353974 0.000000 -0.000000 -0.000000 -0.057069 -8.759445 -0.061264 0.000000 0.000000 0.000000 -55.271438 0.413110 -41.445233 11.503904 -65.871109 12.918228 -50.190313 12.364727 4.610392 17.551619 -5.699230 -12.932297 10.850491 26.127770 8.644833 20.926979 51.115879 0.218760 -0.000001 0.000001 0.000000 13.980884 1.201521 -55.004353 0.370822 1.161733 -65.441893 1.983968 2.148001 -57.665115 0.000000 0.000002 -0.000002 7.504730 1.174451 -63.778476 1.807804 1.475684 -64.567971 0.130378 -0.912245 -43.272517 -0.000001 0.000000 -0.000000 8.574337 2.179092 -75.148972 -0.207656 1.009264 -57.855056 0.443092 1.742186 -53.581267 0.000000 0.000000 0.000002 10.030090 13.637064 -84.750230 0.877120 0.062278 -64.595496 1.141275 1.253138 -55.016306 0.000000 0.000000 0.000001 4.865852 7.713960 5.066078 0.000000 0.000000 0.000000 -1.727485 -3.842177 62.180792 11.300535 19.067260 -3.968921 -0.401670 6.552084 5.647335 15.848971 -2.695784 -17.150632 -2.384705 -31.097513 7.210792 -6.533837 -4.206820 2.475155 -0.000001 -0.000002 0.000001 2.412226 -3.560307 9.282986 -2.102622 -2.491901 20.475835 -1.836436 -4.853174 15.143498 -0.000000 -0.000000 -0.000001 -1.994709 -5.660127 14.224489 0.416705 -5.085387 28.451582 -0.632287 -1.180529 17.568872 -0.000000 0.000000 -0.000003 -3.395392 -8.569166 12.124375 4.157462 -3.928405 34.228424 2.165260 -3.122063 16.926247 0.000001 0.000001 0.000000 -6.836883 -11.346077 23.402349 10.672933 -2.539583 35.822372 6.410318 -3.077517 15.664185 -0.000000 0.000000 -0.000001 -15.908766 18.228904 11.832410 14.125560 12.916111 -0.954012 -0.304765 -3.765742 -5.794928 -0.145182 0.008039 -0.311791 -0.000000 0.000000 0.000000 -7.828877 -1.671208 -8.206090 10.440211 9.430014 0.798224 -5.671964 -0.671541 6.784437 -1.288170 -0.016751 0.150245 0.000000 -0.000002 0.000000 
0.516487 117.941956 -0.911975 2.892026 -29.212641 0.944297 8.056055 -0.265047 -2.292362 1.045025 -0.814356 2.320275 0.000000 0.000000 0.000000 1.051746 -0.537265 2.372767 -3.859433 18.003607 -6.653442 -6.291791 12.928296 0.401020 0.000000 0.000000 -0.000000 -0.056873 -8.756168 -0.061016 0.000000 0.000000 0.000000 -55.279101 0.492951 -41.432201 11.415749 -65.915765 12.820566 -50.192550 12.364388 4.627891 17.551619 -5.699232 -12.932297 10.850490 26.127769 8.644836 20.926976 51.115879 0.218761 -0.000003 0.000001 -0.000002 13.980883 1.201517 -55.004347 0.370823 1.161732 -65.441893 1.983967 2.148002 -57.665115 -0.000000 -0.000001 -0.000001 7.504731 1.174448 -63.778483 1.807805 1.475685 -64.567971 0.130376 -0.912246 -43.272517 -0.000001 0.000001 -0.000001 8.574339 2.179089 -75.148965 -0.207656 1.009265 -57.855056 0.443091 1.742185 -53.581270 -0.000000 -0.000002 0.000002 10.030092 13.637063 -84.750230 0.877120 0.062278 -64.595503 1.141275 1.253138 -55.016303 0.000000 0.000000 -0.000002 4.899517 7.770220 4.883299 0.000000 0.000000 0.000000 -2.486732 -5.619535 62.291783 11.240942 19.305412 -3.821064 -0.295078 6.502941 5.287226 15.913511 -2.655485 -17.091830 -2.582654 -31.081285 7.049762 -6.498513 -4.276770 2.548375 0.000001 -0.000000 0.000002 2.451973 -3.455404 10.124577 -2.056492 -2.510906 22.383095 -1.749157 -4.885701 16.171485 -0.000001 0.000001 -0.000004 -2.015461 -5.610611 14.819364 0.556760 -5.060597 29.999874 -0.607990 -1.137314 19.095558 -0.000000 0.000000 0.000000 -3.535411 -8.575338 12.500589 4.281588 -3.782345 35.249220 2.224738 -3.080028 18.336046 0.000001 -0.000000 -0.000002 -7.220725 -11.346661 23.553291 10.626884 -2.521956 36.881850 6.406507 -3.075566 16.039603 -0.000000 -0.000000 -0.000001 -16.036603 18.222091 11.809304 14.344162 12.860700 -0.956577 -0.384259 -3.604395 -5.773636 -0.145192 0.008042 -0.311791 0.000000 0.000000 0.000000 -8.042841 -1.600336 -8.294805 10.696185 9.265678 0.786206 -5.723279 -0.422079 6.861056 -1.288171 -0.016766 0.150242 0.000000 -0.000001 -0.000000 
0.622287 117.837868 -0.968054 2.912553 -29.376722 1.017546 8.216305 -0.240068 -2.231673 0.982371 -0.769366 2.257493 0.000000 0.000000 0.000000 0.987260 -0.504675 2.302936 -3.858817 18.023136 -6.759832 -6.253559 12.897461 0.461517 0.000000 0.000000 0.000000 -0.053855 -8.693465 -0.060969 0.000000 0.000000 0.000000 -55.250414 0.554227 -41.417512 11.247301 -65.966309 12.636441 -50.201474 12.368758 4.700082 17.551619 -5.699232 -12.932295 10.850495 26.127772 8.644836 20.926976 51.115876 0.218764 0.000003 -0.000001 0.000001 13.980883 1.201519 -55.004353 0.370821 1.161733 -65.441893 1.983966 2.148000 -57.665108 0.000001 -0.000002 0.000000 7.504731 1.174448 -63.778483 1.807806 1.475685 -64.567964 0.130378 -0.912245 -43.272517 0.000000 0.000001 -0.000000 8.574338 2.179091 -75.148972 -0.207656 1.009265 -57.855056 0.443091 1.742185 -53.581270 -0.000000 0.000001 -0.000001 10.030091 13.637064 -84.750230 0.877120 0.062278 -64.595503 1.141275 1.253138 -55.016306 -0.000000 0.000000 -0.000002 4.923730 7.918122 4.671087 0.000000 0.000000 0.000000 -3.132919 -7.632038 62.463815 11.059126 19.707836 -3.492747 -0.105818 6.503900 4.622646 15.981664 -2.613719 -17.029902 -2.790810 -31.064680 6.879368 -6.461023 -4.347838 2.626725 0.000001 0.000001 0.000002 2.490958 -3.344923 11.007149 -2.009442 -2.530183 24.383610 -1.657011 -4.918117 17.249697 0.000001 -0.000001 0.000003 -2.038537 -5.559738 15.443199 0.702049 -5.030693 31.623783 -0.585479 -1.091330 20.696738 -0.000000 0.000001 -0.000000 -3.682338 -8.585997 12.895179 4.407011 -3.625678 36.319114 2.286206 -3.034586 19.814582 -0.000001 0.000001 -0.000004 -7.623297 -11.349998 23.712679 10.582178 -2.506279 37.995004 6.402836 -3.073774 16.434762 -0.000000 -0.000000 0.000000 -16.229522 18.216885 11.764580 14.661619 12.774994 -0.949168 -0.505734 -3.363318 -5.766382 -0.145179 0.008048 -0.311789 -0.000000 0.000000 -0.000000 -8.369750 -1.493481 -8.434270 11.088616 8.991817 0.766053 -5.819437 -0.031334 6.974825 -1.288160 -0.016753 0.150245 0.000000 0.000001 -0.000000 
0.780890 117.664650 -1.023095 2.905517 -29.669225 1.138283 8.506532 -0.212502 -2.116215 0.868401 -0.696429 2.129975 0.000000 0.000000 0.000000 0.870417 -0.455842 2.163771 -3.853841 18.093890 -6.945733 -6.188453 12.866632 0.625713 -0.000000 -0.000000 -0.000000 -0.049759 -8.608682 -0.060881 0.000000 0.000000 0.000000 -55.187993 0.666073 -41.372525 11.060960 -66.061965 12.423059 -50.211623 12.365747 4.777433 17.551619 -5.699231 -12.932296 10.850492 26.127767 8.644833 20.926972 51.115876 0.218762 -0.000003 0.000003 -0.000000 13.980884 1.201519 -55.004350 0.370822 1.161733 -65.441893 1.983969 2.148001 -57.665115 -0.000001 0.000001 -0.000000 7.504730 1.174449 -63.778483 1.807805 1.475685 -64.567971 0.130377 -0.912244 -43.272517 0.000000 -0.000001 -0.000000 8.574339 2.179091 -75.148972 -0.207657 1.009264 -57.855049 0.443092 1.742185 -53.581270 -0.000000 0.000000 -0.000000 10.030092 13.637063 -84.750230 0.877120 0.062278 -64.595496 1.141275 1.253139 -55.016306 -0.000000 -0.000000 -0.000002 4.926554 8.143903 4.272907 0.000000 0.000000 0.000000 -3.433651 -9.791443 62.874248 10.500008 20.433553 -2.575360 0.226356 6.419939 3.487476 16.052973 -2.570663 -16.965261 -3.007953 -31.047646 6.700762 -6.421703 -4.419860 2.709443 -0.000002 0.000001 0.000000 2.528452 -3.229576 11.925420 -1.961810 -2.549739 26.465569 -1.560493 -4.950047 18.371952 0.000001 -0.000000 0.000001 -2.064006 -5.508095 16.092607 0.851612 -4.995300 33.313578 -0.565342 -1.042916 22.363127 -0.000001 -0.000000 0.000000 -3.835313 -8.599778 13.305833 4.532465 -3.459019 37.431878 2.349178 -2.985872 21.353217 0.000001 0.000002 -0.000001 -8.042258 -11.356597 23.879765 10.539579 -2.492901 39.154999 6.399384 -3.072139 16.847246 0.000000 -0.000000 -0.000002 -16.466560 18.207759 11.671796 15.182308 12.764123 -0.918436 -0.732078 -3.062427 -5.796433 -0.145177 0.008039 -0.311791 0.000000 -0.000000 0.000000 -8.856139 -1.342266 -8.673498 11.733936 8.725761 0.746490 -6.005575 0.478172 7.118813 -1.288160 -0.016758 0.150245 0.000000 0.000001 -0.000000 
